<svg width="15" height="12" viewBox="0 0 15 12" fill="none" xmlns="http://www.w3.org/2000/svg">
<path d="M14.9999 1.42539C14.4483 1.65971 13.848 1.82835 13.2297 1.89403C13.8716 1.51847 14.3523 0.925152 14.5817 0.22539C13.9793 0.57827 13.3193 0.825715 12.6312 0.95675C12.3435 0.653957 11.9957 0.412739 11.6092 0.248125C11.2228 0.0835115 10.8061 -0.000969527 10.385 -5.36676e-05C8.68153 -5.36676e-05 7.3115 1.35971 7.3115 3.02835C7.3115 3.26267 7.34034 3.49699 7.38721 3.72243C4.83644 3.59107 2.56147 2.39107 1.04903 0.553792C0.773448 1.01731 0.629034 1.54508 0.630812 2.08219C0.630812 3.13308 1.17341 4.05971 2.00084 4.60468C1.51323 4.58577 1.03703 4.45379 0.610982 4.21947V4.25675C0.610982 5.72834 1.66735 6.94787 3.07523 7.22834C2.81088 7.29596 2.53895 7.33055 2.26583 7.3313C2.06574 7.3313 1.87646 7.31178 1.68537 7.28515C2.07475 8.48515 3.20863 9.35675 4.55883 9.38515C3.50246 10.1999 2.1793 10.6792 0.742577 10.6792C0.484796 10.6792 0.246843 10.6704 -0.00012207 10.642C1.36269 11.5029 2.97969 11.9999 4.72107 11.9999C10.3742 11.9999 13.4676 7.38811 13.4676 3.38515C13.4676 3.25379 13.4676 3.12243 13.4586 2.99107C14.0571 2.55971 14.5817 2.02539 14.9999 1.42539Z" fill="white"/>
</svg>
