<svg xmlns="http://www.w3.org/2000/svg" width="18" height="19" fill="none"><g clip-path="url(#a)"><path fill="#fff" d="M0 1.04A.534.534 0 0 1 .533.506h1.6a.533.533 0 0 1 .518.405l.432 1.73h12.384a.533.533 0 0 1 .524.633l-1.6 8.54a.533.533 0 0 1-.524.436h-9.6a.533.533 0 0 1-.524-.435L2.144 3.29l-.427-1.716H.533A.533.533 0 0 1 0 1.04Zm3.309 2.67 1.4 7.473h8.715l1.401-7.474H3.309Zm2.024 8.54A2.132 2.132 0 0 0 3.2 14.386a2.136 2.136 0 0 0 2.133 2.135 2.133 2.133 0 0 0 2.134-2.135 2.136 2.136 0 0 0-2.133-2.136Zm7.467 0a2.132 2.132 0 0 0-2.133 2.136A2.136 2.136 0 0 0 12.8 16.52a2.133 2.133 0 0 0 2.134-2.135A2.136 2.136 0 0 0 12.8 12.25Zm-7.467 1.068a1.066 1.066 0 0 1 .755 1.823 1.066 1.066 0 1 1-1.509-1.51c.2-.2.472-.313.755-.313Zm7.467 0a1.066 1.066 0 1 1 0 2.133 1.066 1.066 0 0 1 0-2.133Z"/></g><defs><clipPath id="a"><path fill="#fff" d="M0 0h18v18.264H0z"/></clipPath></defs></svg>