<svg width="15" height="15" viewBox="0 0 15 15" fill="none" xmlns="http://www.w3.org/2000/svg">
<path fill-rule="evenodd" clip-rule="evenodd" d="M4.40783 0.0449695C5.20761 0.00815129 5.46261 -3.05176e-05 7.49988 -3.05176e-05C9.53715 -3.05176e-05 9.79215 0.00883311 10.5912 0.0449695C11.3903 0.0811058 11.9358 0.208606 12.4131 0.393379C12.9128 0.582242 13.3662 0.877469 13.7412 1.25929C14.1231 1.63361 14.4176 2.08633 14.6058 2.58679C14.7912 3.06406 14.9181 3.60952 14.9549 4.40724C14.9917 5.20838 14.9999 5.46338 14.9999 7.49997C14.9999 9.53724 14.991 9.79224 14.9549 10.592C14.9187 11.3897 14.7912 11.9352 14.6058 12.4125C14.4176 12.913 14.1226 13.3665 13.7412 13.7413C13.3662 14.1232 12.9128 14.4177 12.4131 14.6059C11.9358 14.7913 11.3903 14.9182 10.5926 14.955C9.79215 14.9918 9.53715 15 7.49988 15C5.46261 15 5.20761 14.9911 4.40783 14.955C3.61011 14.9188 3.06465 14.7913 2.58738 14.6059C2.08687 14.4177 1.63339 14.1226 1.25851 13.7413C0.876955 13.3668 0.581683 12.9135 0.393287 12.4132C0.208514 11.9359 0.0816961 11.3904 0.0448779 10.5927C0.00805974 9.79156 -0.00012207 9.53656 -0.00012207 7.49997C-0.00012207 5.4627 0.00874156 5.2077 0.0448779 4.40861C0.0810143 3.60951 0.208514 3.06406 0.393287 2.58679C0.581962 2.08639 0.877459 1.63314 1.2592 1.25861C1.63354 0.877129 2.08656 0.581863 2.5867 0.393379C3.06397 0.208606 3.60942 0.0817877 4.40715 0.0449695H4.40783ZM10.5306 1.39497C9.73965 1.35883 9.50238 1.35133 7.49988 1.35133C5.49738 1.35133 5.26011 1.35883 4.4692 1.39497C3.73761 1.42838 3.34079 1.55042 3.07624 1.65338C2.72647 1.78974 2.47624 1.95133 2.21374 2.21383C1.96491 2.45591 1.77341 2.75062 1.65329 3.07633C1.55033 3.34088 1.42829 3.7377 1.39488 4.46929C1.35874 5.2602 1.35124 5.49747 1.35124 7.49997C1.35124 9.50247 1.35874 9.73974 1.39488 10.5307C1.42829 11.2622 1.55033 11.6591 1.65329 11.9236C1.77329 12.2488 1.96488 12.5441 2.21374 12.7861C2.45579 13.035 2.75101 13.2266 3.07624 13.3466C3.34079 13.4495 3.73761 13.5716 4.4692 13.605C5.26011 13.6411 5.4967 13.6486 7.49988 13.6486C9.50306 13.6486 9.73965 13.6411 10.5306 13.605C11.2622 13.5716 11.659 13.4495 11.9235 13.3466C12.2733 13.2102 12.5235 13.0486 12.786 12.7861C13.0349 12.5441 13.2265 12.2488 13.3465 11.9236C13.4494 11.6591 13.5715 11.2622 13.6049 10.5307C13.641 9.73974 13.6485 9.50247 13.6485 7.49997C13.6485 5.49747 13.641 5.2602 13.6049 4.46929C13.5715 3.7377 13.4494 3.34088 13.3465 3.07633C13.2101 2.72656 13.0485 2.47633 12.786 2.21383C12.5439 1.96502 12.2492 1.77352 11.9235 1.65338C11.659 1.55042 11.2622 1.42838 10.5306 1.39497ZM6.54192 9.81201C7.07692 10.0347 7.67264 10.0648 8.22733 9.89705C8.78202 9.72933 9.26128 9.37423 9.58325 8.89241C9.90522 8.41059 10.0499 7.83193 9.99264 7.25527C9.93536 6.67861 9.67965 6.13972 9.2692 5.73065C9.00754 5.46916 8.69116 5.26893 8.34283 5.14439C7.99451 5.01984 7.6229 4.97408 7.25476 5.01039C6.88662 5.0467 6.53112 5.16418 6.21384 5.35438C5.89655 5.54457 5.62539 5.80275 5.41986 6.11032C5.21433 6.4179 5.07955 6.76721 5.02523 7.13312C4.97091 7.49904 4.99839 7.87244 5.1057 8.22646C5.21301 8.58047 5.39748 8.90629 5.64582 9.18046C5.89417 9.45463 6.20021 9.67032 6.54192 9.81201ZM4.77397 4.77406C5.13194 4.41609 5.55691 4.13213 6.02463 3.9384C6.49234 3.74466 6.99363 3.64495 7.49988 3.64495C8.00613 3.64495 8.50742 3.74466 8.97513 3.9384C9.44284 4.13213 9.86782 4.41609 10.2258 4.77406C10.5838 5.13203 10.8677 5.55701 11.0615 6.02472C11.2552 6.49243 11.3549 6.99372 11.3549 7.49997C11.3549 8.00622 11.2552 8.50751 11.0615 8.97522C10.8677 9.44293 10.5838 9.86791 10.2258 10.2259C9.50283 10.9488 8.52229 11.355 7.49988 11.355C6.47746 11.355 5.49692 10.9488 4.77397 10.2259C4.05101 9.50292 3.64486 8.52238 3.64486 7.49997C3.64486 6.47756 4.05101 5.49702 4.77397 4.77406ZM12.2099 4.21906C12.2986 4.13538 12.3696 4.03475 12.4187 3.92313C12.4678 3.81152 12.4941 3.69118 12.4958 3.56924C12.4976 3.4473 12.4749 3.32625 12.4291 3.21325C12.3832 3.10025 12.3152 2.99759 12.2289 2.91136C12.1427 2.82513 12.0401 2.75708 11.9271 2.71123C11.8141 2.66539 11.693 2.64268 11.5711 2.64446C11.4491 2.64624 11.3288 2.67246 11.2172 2.72158C11.1056 2.7707 11.0049 2.84172 10.9212 2.93042C10.7585 3.10294 10.6694 3.3321 10.6729 3.56924C10.6763 3.80638 10.7721 4.03284 10.9398 4.20054C11.1075 4.36825 11.3339 4.46399 11.5711 4.46745C11.8082 4.4709 12.0374 4.3818 12.2099 4.21906Z"/>
</svg>
